#!OML:ASF H:\Dans Jumps\Project 1\Capture day 1\Session 1\subject.ASF
:FULLY-SPECIFIED
:DEGREES
572
root 0.469666 17.578 10.9412 10.6707 -2.2353 -2.83503
lowerback 3.94929 0.694053 0.0995405
upperback 5.78856 0.880572 1.45766
thorax 3.7304 0.407525 1.44141
lowerneck -15.2078 0.84054 -1.70131
upperneck 34.3308 1.53403 0.670473
head 14.2869 0.524728 0.822745
rclavicle -1.11568e-014 -1.88845e-015
rhumerus -15.3717 -6.1552 -86.5159
rradius 25.4175
rwrist 30.239
rhand -21.6318 -27.1143
rfingers 7.12502
rthumb 4.76434 -57.0407
lclavicle -1.11568e-014 -1.88845e-015
lhumerus -14.7925 -9.45949 91.0142
lradius 21.0769
lwrist 8.62761
lhand -27.6241 -7.45077
lfingers 7.12502
lthumb -1.02289 22.5265
rfemur -20.9819 -1.5595 21.9846
rtibia 26.5718
rfoot -15.0205 0.609365
rtoes 10.9344
lfemur -18.4927 6.78995 -17.8243
ltibia 25.5118
lfoot -12.2203 9.69209
ltoes -14.3072
573
root 0.469684 17.578 10.9392 10.6561 -2.23504 -2.83075
lowerback 3.93287 0.692624 0.108744
upperback 5.79408 0.878627 1.4558
thorax 3.7456 0.406888 1.43465
lowerneck -15.1932 0.842034 -1.70416
upperneck 34.3352 1.53972 0.662583
head 14.2857 0.52572 0.820887
rclavicle -3.80176e-015 8.54774e-015
rhumerus -15.3942 -6.16673 -86.5048
rradius 25.424
rwrist 30.218
rhand -21.6123 -27.1136
rfingers 7.12502
rthumb 4.78317 -57.0396
lclavicle -3.80176e-015 8.54774e-015
lhumerus -14.8054 -9.45476 91.0305
lradius 21.1449
lwrist 8.63473
lhand -27.6067 -7.44393
lfingers 7.12502
lthumb -1.00604 22.5334
rfemur -20.9734 -1.54993 21.9782
rtibia 26.5741
rfoot -15.0192 0.599421
rtoes 10.9376
lfemur -18.4785 6.79276 -17.8274
ltibia 25.5023
lfoot -12.2393 9.67832
ltoes -14.202
574
root 0.469723 17.5779 10.9372 10.6416 -2.23222 -2.83086
lowerback 3.9178 0.690352 0.123292
upperback 5.79898 0.875595 1.45567
thorax 3.75949 0.405891 1.42667
lowerneck -15.1821 0.844178 -1.70519
upperneck 34.3388 1.5463 0.653487
head 14.2848 0.527162 0.818383
rclavicle -1.09829e-014 -4.37326e-015
rhumerus -15.4123 -6.18343 -86.4959
rradius 25.4275
rwrist 30.2039
rhand -21.6029 -27.1067
rfingers 7.12502
rthumb 4.79225 -57.0325
lclavicle -1.09829e-014 -4.37326e-015
lhumerus -14.8131 -9.43845 91.0465
lradius 21.2077
lwrist 8.61613
lhand -27.6048 -7.48946
lfingers 7.12502
lthumb -1.00418 22.4879
rfemur -20.9627 -1.54226 21.9771
rtibia 26.5726
rfoot -15.017 0.589237
rtoes 10.9345
lfemur -18.4666 6.79434 -17.8251
ltibia 25.4961
lfoot -12.2727 9.66138
ltoes -14.0283
575
root 0.469719 17.5778 10.9352 10.6284 -2.22827 -2.83615
lowerback 3.906 0.688146 0.142345
upperback 5.8008 0.872705 1.45786
thorax 3.76834 0.405121 1.41846
lowerneck -15.1738 0.847778 -1.70126
upperneck 34.3442 1.55559 0.638757
head 14.2855 0.529611 0.813208
rclavicle -1.2424e-016 -9.83984e-015
rhumerus -15.4301 -6.20874 -86.4872
rradius 25.4279
rwrist 30.1992
rhand -21.5923 -27.0945
rfingers 7.12502
rthumb 4.80246 -57.0201
lclavicle -1.2424e-016 -9.83984e-015
lhumerus -14.8222 -9.41979 91.0654
lradius 21.2668
lwrist 8.58234
lhand -27.6222 -7.5852
lfingers 7.12502
lthumb -1.02107 22.3921
rfemur -20.9526 -1.53315 21.9819
rtibia 26.5697
rfoot -15.0131 0.578407
rtoes 10.9376
lfemur -18.4579 6.79637 -17.8169
ltibia 25.4921
lfoot -12.3188 9.64069
ltoes -13.7982
576
root 0.469731 17.5778 10.9332 10.6154 -2.22357 -2.84163
lowerback 3.89827 0.685638 0.161737
upperback 5.80051 0.869462 1.46058
thorax 3.7727 0.404201 1.41054
lowerneck -15.1686 0.850969 -1.69941
upperneck 34.3487 1.56354 0.628015
head 14.2864 0.531768 0.809818
rclavicle -4.00054e-015 5.86415e-015
rhumerus -15.4508 -6.22671 -86.4811
rradius 25.438
rwrist 30.1896
rhand -21.5854 -27.0838
rfingers 7.12502
rthumb 4.80908 -57.0092
lclavicle -4.00054e-015 5.86415e-015
lhumerus -14.8288 -9.4177 91.0878
lradius 21.3175
lwrist 8.56411
lhand -27.6401 -7.67341
lfingers 7.12502
lthumb -1.03831 22.3038
rfemur -20.9438 -1.52578 21.9874
rtibia 26.5665
rfoot -15.0064 0.568157
rtoes 10.9385
lfemur -18.4511 6.79582 -17.8082
ltibia 25.4899
lfoot -12.3699 9.61955
ltoes -13.5383
577
root 0.469757 17.5777 10.931 10.6017 -2.21967 -2.84267
lowerback 3.89368 0.682528 0.175016
upperback 5.79927 0.865393 1.46304
thorax 3.77423 0.402646 1.40571
lowerneck -15.1635 0.85516 -1.69592
upperneck 34.3506 1.57273 0.616334
head 14.2862 0.534561 0.805931
rclavicle -6.65929e-015 -6.36111e-015
rhumerus -15.4734 -6.23579 -86.478
rradius 25.4585
rwrist 30.1758
rhand -21.5781 -27.0782
rfingers 7.12502
rthumb 4.81617 -57.0034
lclavicle -6.65929e-015 -6.36111e-015
lhumerus -14.8351 -9.44601 91.1157
lradius 21.3626
lwrist 8.59238
lhand -27.6315 -7.67756
lfingers 7.12502
lthumb -1.03002 22.2997
rfemur -20.9363 -1.51899 21.9881
rtibia 26.5655
rfoot -14.9982 0.557017
rtoes 10.9365
lfemur -18.4445 6.79488 -17.8048
ltibia 25.4884
lfoot -12.4144 9.60015
ltoes -13.3086
578
root 0.469797 17.5776 10.9288 10.5871 -2.21738 -2.84275
lowerback 3.89261 0.679361 0.186877
upperback 5.7965 0.861282 1.46553
thorax 3.77217 0.401028 1.40164
lowerneck -15.1528 0.860941 -1.69512
upperneck 34.3465 1.58459 0.60558
head 14.2819 0.538352 0.803208
rclavicle -3.77691e-015 -1.26228e-014
rhumerus -15.4899 -6.24601 -86.479
rradius 25.4749
rwrist 30.1657
rhand -21.5793 -27.0707
rfingers 7.12502
rthumb 4.815 -56.9959
lclavicle -3.77691e-015 -1.26228e-014
lhumerus -14.8428 -9.49893 91.1477
lradius 21.4047
lwrist 8.65655
lhand -27.6119 -7.63231
lfingers 7.12502
lthumb -1.01105 22.345
rfemur -20.9301 -1.51131 21.9876
rtibia 26.5675
rfoot -14.9913 0.546741
rtoes 10.9368
lfemur -18.4373 6.79384 -17.8027
ltibia 25.4873
lfoot -12.4441 9.5853
ltoes -13.1473
579
root 0.469792 17.5776 10.9265 10.5718 -2.21798 -2.83784
lowerback 3.89261 0.676428 0.192557
upperback 5.79427 0.85745 1.46651
thorax 3.76999 0.399336 1.39947
lowerneck -15.142 0.868684 -1.69243
upperneck 34.3409 1.59974 0.591979
head 14.2769 0.54342 0.799516
rclavicle 5.41688e-015 -7.45443e-015
rhumerus -15.5004 -6.25585 -86.4846
rradius 25.4913
rwrist 30.1587
rhand -21.5878 -27.0638
rfingers 7.12502
rthumb 4.80681 -56.9893
lclavicle 5.41688e-015 -7.45443e-015
lhumerus -14.8496 -9.57663 91.1823
lradius 21.447
lwrist 8.75952
lhand -27.5785 -7.51959
lfingers 7.12502
lthumb -0.978811 22.4579
rfemur -20.926 -1.50313 21.9814
rtibia 26.5735
rfoot -14.9849 0.538482
rtoes 10.9406
lfemur -18.4294 6.79419 -17.8066
ltibia 25.4864
lfoot -12.4393 9.57985
ltoes -13.1433
580
root 0.469661 17.5774 10.9239 10.5567 -2.22242 -2.83287
lowerback 3.8968 0.674269 0.195304
upperback 5.78946 0.854665 1.46825
thorax 3.76268 0.398055 1.39963
lowerneck -15.1313 0.880073 -1.68366
upperneck 34.3369 1.6218 0.568844
head 14.2727 0.550912 0.792022
rclavicle -7.35503e-015 -1.39149e-015
rhumerus -15.507 -6.26515 -86.4924
rradius 25.5045
rwrist 30.1565
rhand -21.604 -27.0534
rfingers 7.12502
rthumb 4.79112 -56.9792
lclavicle -7.35503e-015 -1.39149e-015
lhumerus -14.8637 -9.66653 91.2211
lradius 21.4971
lwrist 8.89296
lhand -27.5336 -7.35726
lfingers 7.12502
lthumb -0.935407 22.6204
rfemur -20.9246 -1.48983 21.9751
rtibia 26.5826
rfoot -14.9796 0.529138
rtoes 10.9515
lfemur -18.4227 6.7967 -17.8107
ltibia 25.4868
lfoot -12.4179 9.57968
ltoes -13.2115
581
root 0.46942 17.5771 10.9213 10.5414 -2.22918 -2.82579
lowerback 3.90347 0.672789 0.195019
upperback 5.78105 0.852834 1.46949
thorax 3.75016 0.39717 1.40087
lowerneck -15.1153 0.892887 -1.67276
upperneck 34.335 1.64666 0.54168
head 14.2684 0.559322 0.782947
rclavicle -4.96962e-017 -3.97569e-016
rhumerus -15.5156 -6.26953 -86.5029
rradius 25.5185
rwrist 30.1496
rhand -21.618 -27.0489
rfingers 7.12502
rthumb 4.7776 -56.975
lclavicle -4.96962e-017 -3.97569e-016
lhumerus -14.8863 -9.75342 91.2611
lradius 21.5542
lwrist 9.02672
lhand -27.501 -7.2366
lfingers 7.12502
lthumb -0.904001 22.7412
rfemur -20.9239 -1.47493 21.9666
rtibia 26.5928
rfoot -14.9752 0.520894
rtoes 10.968
lfemur -18.4164 6.80023 -17.817
ltibia 25.4883
lfoot -12.3968 9.57985
ltoes -13.2721
582
root 0.469062 17.5768 10.9186 10.5272 -2.23707 -2.81816
lowerback 3.91091 0.671741 0.19347
upperback 5.77019 0.851608 1.47063
thorax 3.73461 0.396556 1.40269
lowerneck -15.0982 0.904058 -1.66483
upperneck 34.3385 1.66829 0.519432
head 14.2662 0.566583 0.775909
rclavicle -6.06293e-015 -1.68967e-015
rhumerus -15.5241 -6.2666 -86.5156
rradius 25.5337
rwrist 30.1387
rhand -21.6324 -27.0487
rfingers 7.12502
rthumb 4.76371 -56.9751
lclavicle -6.06293e-015 -1.68967e-015
lhumerus -14.9129 -9.82409 91.3007
lradius 21.616
lwrist 9.14528
lhand -27.4887 -7.18576
lfingers 7.12502
lthumb -0.892137 22.7921
rfemur -20.9248 -1.45819 21.9578
rtibia 26.603
rfoot -14.9711 0.511314
rtoes 10.9895
lfemur -18.412 6.80402 -17.8236
ltibia 25.4908
lfoot -12.3832 9.5792
ltoes -13.2925
